<svg version="1.1" xmlns="http://www.w3.org/2000/svg" xmlns:xlink="http://www.w3.org/1999/xlink" width="884" height="713" viewBox="0 0 884 713"><defs/><g transform="matrix(1,0,0,1,0,0)"><g><g><g><path fill="none" stroke="#d3d3d3" paint-order="fill stroke markers" d=" M 0 0 L 1200 0" stroke-miterlimit="10" stroke-opacity="0.8" stroke-dasharray="5"/></g><g><path fill="none" stroke="#d3d3d3" paint-order="fill stroke markers" d=" M 0 0 L 0 800" stroke-miterlimit="10" stroke-opacity="0.8" stroke-dasharray="5"/></g></g><g id="_C389338F-46D7-49BE-BCF9-8AF2F9FADF6A" bpmn2nodeid="_C389338F-46D7-49BE-BCF9-8AF2F9FADF6A" transform="matrix(1,0,0,1,100,100)"><g><path fill="none" stroke="none"/></g><g transform="matrix(0.125,0,0,0.125,0,0)"><g transform="matrix(1,0,0,1,0,0)"><path fill="#e8fae6" stroke="none" id="_C389338F-46D7-49BE-BCF9-8AF2F9FADF6A?shapeType=BACKGROUND" paint-order="stroke fill markers" d=" M 0 0 M 444 224 C 444 263.9 434.2 300.8 414.4 334.5 C 394.7 368.2 368 394.9 334.4 414.5 C 300.79999999999995 434.1 263.9 444 224 444 C 184.10000000000002 444 147.2 434.2 113.5 414.4 C 79.8 394.7 53.1 368 33.5 334.4 C 13.899999999999999 300.79999999999995 4 263.9 4 224 C 4 184.10000000000002 13.8 147.2 33.6 113.5 C 53.400000000000006 79.80000000000001 80.1 53.1 113.6 33.5 C 147.1 13.899999999999999 184.1 4 224 4 C 263.9 4 300.8 13.8 334.5 33.6 C 368.2 53.400000000000006 394.9 80.1 414.5 113.6 C 434.1 147.1 444 184.1 444 224 Z"/></g><g><g transform="matrix(1,0,0,1,0,0)"><g transform="matrix(1,0,0,1,0,0)"><path fill="#4aa241" stroke="none" id="_C389338F-46D7-49BE-BCF9-8AF2F9FADF6A?shapeType=BORDER&amp;renderType=FILL" paint-order="stroke fill markers" d=" M 0 0 M 224 0 C 100.3 0 0 100.3 0 224 C 0 347.7 100.3 448 224 448 C 347.7 448 448 347.7 448 224 C 448 100.30000000000001 347.7 0 224 0 Z M 0 0 M 224 432 C 109.1 432 16 338.9 16 224 C 16 109.10000000000002 109.1 16 224 16 C 338.9 16 432 109.1 432 224 C 432 338.9 338.9 432 224 432 Z"/></g></g></g></g><g transform="matrix(1,0,0,1,0,56)"><g/><g><path fill="none" stroke="black" id="_C389338F-46D7-49BE-BCF9-8AF2F9FADF6Aundefined" paint-order="fill stroke markers" d=" M 0 0 L 0 0" stroke-miterlimit="10" stroke-opacity="0.1" stroke-dasharray=""/></g></g></g><g transform="matrix(1,0,0,1,100,100)"/><g id="_BB1AAE62-FFF3-4FC0-B101-EA87EABEC5FF" bpmn2nodeid="_BB1AAE62-FFF3-4FC0-B101-EA87EABEC5FF" transform="matrix(1,0,0,1,187,16)"><g><path fill="none" stroke="none"/></g><g transform="matrix(1,0,0,1,0,0)"><path fill="#f2f2f2" stroke="none" id="_BB1AAE62-FFF3-4FC0-B101-EA87EABEC5FF?shapeType=BACKGROUND" paint-order="stroke fill markers" d=" M 0 0 L 626 0 L 626 200 L 0 200 L 0 0 Z Z"/></g><g transform="matrix(1,0,0,1,0,0)"><path fill="none" stroke="rgb(0,0,0)" id="_BB1AAE62-FFF3-4FC0-B101-EA87EABEC5FF?shapeType=BORDER&amp;renderType=STROKE" paint-order="fill stroke markers" d=" M 0 0 L 626 0 L 626 200 L 0 200 L 0 0 Z Z" stroke-miterlimit="10" stroke-width="0.5" stroke-dasharray=""/></g><g transform="matrix(1,0,0,1,3.6415315207705135e-14,200)"><g transform="matrix(-1.8369701987210297e-16,-1,1,-1.8369701987210297e-16,0,0)"><text fill="#000000" stroke="none" font-family="Open Sans" font-size="12pt" font-style="normal" font-weight="normal" text-decoration="normal" x="100" y="12" text-anchor="middle" dominant-baseline="alphabetic" id="_BB1AAE62-FFF3-4FC0-B101-EA87EABEC5FFundefined">                 supplier                 </text><path fill="none" stroke="none"/><text fill="none" stroke="#393f44" font-family="Open Sans" font-size="12pt" font-style="normal" font-weight="normal" text-decoration="normal" x="100" y="12" text-anchor="middle" dominant-baseline="alphabetic" stroke-miterlimit="10" stroke-dasharray="">                 supplier                 </text></g><g><path fill="none" stroke="black" id="_BB1AAE62-FFF3-4FC0-B101-EA87EABEC5FFundefined" paint-order="fill stroke markers" d=" M 0 0 L 0 0" stroke-miterlimit="10" stroke-opacity="0.1" stroke-dasharray=""/></g></g></g><g id="_BB1AAE62-FFF3-4FC0-B101-EA87EABEC5FF" bpmn2nodeid="_BB1AAE62-FFF3-4FC0-B101-EA87EABEC5FF" transform="matrix(1,0,0,1,187,16)"><g><path fill="none" stroke="none"/></g><g transform="matrix(1,0,0,1,0,0)"><path fill="#f2f2f2" stroke="none" id="_BB1AAE62-FFF3-4FC0-B101-EA87EABEC5FF?shapeType=BACKGROUND" paint-order="stroke fill markers" d=" M 0 0 L 626 0 L 626 200 L 0 200 L 0 0 Z Z"/></g><g transform="matrix(1,0,0,1,0,0)"><path fill="none" stroke="rgb(0,0,0)" id="_BB1AAE62-FFF3-4FC0-B101-EA87EABEC5FF?shapeType=BORDER&amp;renderType=STROKE" paint-order="fill stroke markers" d=" M 0 0 L 626 0 L 626 200 L 0 200 L 0 0 Z Z" stroke-miterlimit="10" stroke-width="0.5" stroke-dasharray=""/></g><g transform="matrix(1,0,0,1,3.6415315207705135e-14,200)"><g transform="matrix(-1.8369701987210297e-16,-1,1,-1.8369701987210297e-16,0,0)"><text fill="#000000" stroke="none" font-family="Open Sans" font-size="12pt" font-style="normal" font-weight="normal" text-decoration="normal" x="100" y="12" text-anchor="middle" dominant-baseline="alphabetic" id="_BB1AAE62-FFF3-4FC0-B101-EA87EABEC5FFundefined">                 supplier                 </text><path fill="none" stroke="none"/><text fill="none" stroke="#393f44" font-family="Open Sans" font-size="12pt" font-style="normal" font-weight="normal" text-decoration="normal" x="100" y="12" text-anchor="middle" dominant-baseline="alphabetic" stroke-miterlimit="10" stroke-dasharray="">                 supplier                 </text></g><g><path fill="none" stroke="black" id="_BB1AAE62-FFF3-4FC0-B101-EA87EABEC5FFundefined" paint-order="fill stroke markers" d=" M 0 0 L 0 0" stroke-miterlimit="10" stroke-opacity="0.1" stroke-dasharray=""/></g></g></g><g transform="matrix(1,0,0,1,187,16)"/><g id="_D1B8FA50-61D1-4B10-B7F5-CBA4B74A1446" bpmn2nodeid="_D1B8FA50-61D1-4B10-B7F5-CBA4B74A1446" transform="matrix(1,0,0,1,187,230)"><g><path fill="none" stroke="none"/></g><g transform="matrix(1,0,0,1,0,0)"><path fill="#f2f2f2" stroke="none" id="_D1B8FA50-61D1-4B10-B7F5-CBA4B74A1446?shapeType=BACKGROUND" paint-order="stroke fill markers" d=" M 0 0 L 642 0 L 642 200 L 0 200 L 0 0 Z Z"/></g><g transform="matrix(1,0,0,1,0,0)"><path fill="none" stroke="rgb(0,0,0)" id="_D1B8FA50-61D1-4B10-B7F5-CBA4B74A1446?shapeType=BORDER&amp;renderType=STROKE" paint-order="fill stroke markers" d=" M 0 0 L 642 0 L 642 200 L 0 200 L 0 0 Z Z" stroke-miterlimit="10" stroke-width="0.5" stroke-dasharray=""/></g><g transform="matrix(1,0,0,1,3.6415315207705135e-14,200)"><g transform="matrix(-1.8369701987210297e-16,-1,1,-1.8369701987210297e-16,0,0)"><text fill="#000000" stroke="none" font-family="Open Sans" font-size="12pt" font-style="normal" font-weight="normal" text-decoration="normal" x="100" y="12" text-anchor="middle" dominant-baseline="alphabetic" id="_D1B8FA50-61D1-4B10-B7F5-CBA4B74A1446undefined">                Purchase                </text><path fill="none" stroke="none"/><text fill="none" stroke="#393f44" font-family="Open Sans" font-size="12pt" font-style="normal" font-weight="normal" text-decoration="normal" x="100" y="12" text-anchor="middle" dominant-baseline="alphabetic" stroke-miterlimit="10" stroke-dasharray="">                Purchase                </text></g><g><path fill="none" stroke="black" id="_D1B8FA50-61D1-4B10-B7F5-CBA4B74A1446undefined" paint-order="fill stroke markers" d=" M 0 0 L 0 0" stroke-miterlimit="10" stroke-opacity="0.1" stroke-dasharray=""/></g></g></g><g id="_D1B8FA50-61D1-4B10-B7F5-CBA4B74A1446" bpmn2nodeid="_D1B8FA50-61D1-4B10-B7F5-CBA4B74A1446" transform="matrix(1,0,0,1,187,230)"><g><path fill="none" stroke="none"/></g><g transform="matrix(1,0,0,1,0,0)"><path fill="#f2f2f2" stroke="none" id="_D1B8FA50-61D1-4B10-B7F5-CBA4B74A1446?shapeType=BACKGROUND" paint-order="stroke fill markers" d=" M 0 0 L 642 0 L 642 200 L 0 200 L 0 0 Z Z"/></g><g transform="matrix(1,0,0,1,0,0)"><path fill="none" stroke="rgb(0,0,0)" id="_D1B8FA50-61D1-4B10-B7F5-CBA4B74A1446?shapeType=BORDER&amp;renderType=STROKE" paint-order="fill stroke markers" d=" M 0 0 L 642 0 L 642 200 L 0 200 L 0 0 Z Z" stroke-miterlimit="10" stroke-width="0.5" stroke-dasharray=""/></g><g transform="matrix(1,0,0,1,3.6415315207705135e-14,200)"><g transform="matrix(-1.8369701987210297e-16,-1,1,-1.8369701987210297e-16,0,0)"><text fill="#000000" stroke="none" font-family="Open Sans" font-size="12pt" font-style="normal" font-weight="normal" text-decoration="normal" x="100" y="12" text-anchor="middle" dominant-baseline="alphabetic" id="_D1B8FA50-61D1-4B10-B7F5-CBA4B74A1446undefined">                Purchase                </text><path fill="none" stroke="none"/><text fill="none" stroke="#393f44" font-family="Open Sans" font-size="12pt" font-style="normal" font-weight="normal" text-decoration="normal" x="100" y="12" text-anchor="middle" dominant-baseline="alphabetic" stroke-miterlimit="10" stroke-dasharray="">                Purchase                </text></g><g><path fill="none" stroke="black" id="_D1B8FA50-61D1-4B10-B7F5-CBA4B74A1446undefined" paint-order="fill stroke markers" d=" M 0 0 L 0 0" stroke-miterlimit="10" stroke-opacity="0.1" stroke-dasharray=""/></g></g></g><g transform="matrix(1,0,0,1,187,230)"/><g id="_2B7F64FE-4220-40A6-A581-2FDE83280A41" bpmn2nodeid="_2B7F64FE-4220-40A6-A581-2FDE83280A41" transform="matrix(1,0,0,1,187,463)"><g><path fill="none" stroke="none"/></g><g transform="matrix(1,0,0,1,0,0)"><path fill="#f2f2f2" stroke="none" id="_2B7F64FE-4220-40A6-A581-2FDE83280A41?shapeType=BACKGROUND" paint-order="stroke fill markers" d=" M 0 0 L 647 0 L 647 200 L 0 200 L 0 0 Z Z"/></g><g transform="matrix(1,0,0,1,0,0)"><path fill="none" stroke="rgb(0,0,0)" id="_2B7F64FE-4220-40A6-A581-2FDE83280A41?shapeType=BORDER&amp;renderType=STROKE" paint-order="fill stroke markers" d=" M 0 0 L 647 0 L 647 200 L 0 200 L 0 0 Z Z" stroke-miterlimit="10" stroke-width="0.5" stroke-dasharray=""/></g><g transform="matrix(1,0,0,1,3.6415315207705135e-14,200)"><g transform="matrix(-1.8369701987210297e-16,-1,1,-1.8369701987210297e-16,0,0)"><text fill="#000000" stroke="none" font-family="Open Sans" font-size="12pt" font-style="normal" font-weight="normal" text-decoration="normal" x="100" y="12" text-anchor="middle" dominant-baseline="alphabetic" id="_2B7F64FE-4220-40A6-A581-2FDE83280A41undefined">                manager                </text><path fill="none" stroke="none"/><text fill="none" stroke="#393f44" font-family="Open Sans" font-size="12pt" font-style="normal" font-weight="normal" text-decoration="normal" x="100" y="12" text-anchor="middle" dominant-baseline="alphabetic" stroke-miterlimit="10" stroke-dasharray="">                manager                </text></g><g><path fill="none" stroke="black" id="_2B7F64FE-4220-40A6-A581-2FDE83280A41undefined" paint-order="fill stroke markers" d=" M 0 0 L 0 0" stroke-miterlimit="10" stroke-opacity="0.1" stroke-dasharray=""/></g></g></g><g id="_2B7F64FE-4220-40A6-A581-2FDE83280A41" bpmn2nodeid="_2B7F64FE-4220-40A6-A581-2FDE83280A41" transform="matrix(1,0,0,1,187,463)"><g><path fill="none" stroke="none"/></g><g transform="matrix(1,0,0,1,0,0)"><path fill="#f2f2f2" stroke="none" id="_2B7F64FE-4220-40A6-A581-2FDE83280A41?shapeType=BACKGROUND" paint-order="stroke fill markers" d=" M 0 0 L 647 0 L 647 200 L 0 200 L 0 0 Z Z"/></g><g transform="matrix(1,0,0,1,0,0)"><path fill="none" stroke="rgb(0,0,0)" id="_2B7F64FE-4220-40A6-A581-2FDE83280A41?shapeType=BORDER&amp;renderType=STROKE" paint-order="fill stroke markers" d=" M 0 0 L 647 0 L 647 200 L 0 200 L 0 0 Z Z" stroke-miterlimit="10" stroke-width="0.5" stroke-dasharray=""/></g><g transform="matrix(1,0,0,1,3.6415315207705135e-14,200)"><g transform="matrix(-1.8369701987210297e-16,-1,1,-1.8369701987210297e-16,0,0)"><text fill="#000000" stroke="none" font-family="Open Sans" font-size="12pt" font-style="normal" font-weight="normal" text-decoration="normal" x="100" y="12" text-anchor="middle" dominant-baseline="alphabetic" id="_2B7F64FE-4220-40A6-A581-2FDE83280A41undefined">                manager                </text><path fill="none" stroke="none"/><text fill="none" stroke="#393f44" font-family="Open Sans" font-size="12pt" font-style="normal" font-weight="normal" text-decoration="normal" x="100" y="12" text-anchor="middle" dominant-baseline="alphabetic" stroke-miterlimit="10" stroke-dasharray="">                manager                </text></g><g><path fill="none" stroke="black" id="_2B7F64FE-4220-40A6-A581-2FDE83280A41undefined" paint-order="fill stroke markers" d=" M 0 0 L 0 0" stroke-miterlimit="10" stroke-opacity="0.1" stroke-dasharray=""/></g></g></g><g transform="matrix(1,0,0,1,187,463)"/></g></g></svg>